<?xml version="1.0" encoding="UTF-8"?>
<svg id="Logos" xmlns="http://www.w3.org/2000/svg" viewBox="0 0 3703.26 1080">
  <defs>
    <style>
      .cls-1 {
        fill: #fff;
      }

      .cls-2 {
        fill: #cf0;
      }
    </style>
  </defs>
  <g>
    <path class="cls-1" d="M1465.11,877.86c-180.84,0-335.32-129.03-335.32-331.7s157.2-331.7,338.95-331.7c92.7,0,201.75,34.52,268.08,149.95l-115.41,79.07c-33.61-49.99-82.69-77.25-149.93-77.25-98.16,0-177.22,65.43-177.22,179.92s74.53,185.37,176.31,185.37c58.16,0,112.69-22.71,133.58-91.79h-132.67v-131.76h288.06c38.18,232.64-112.69,369.88-294.44,369.88Z"/>
    <path class="cls-1" d="M1885.72,223.56h157.22v645.21h-157.22V223.56Z"/>
    <path class="cls-1" d="M2122.83,632.51c0-160.87,128.14-245.39,252.64-245.39s251.73,84.52,251.73,245.39-128.14,245.36-251.73,245.36-252.64-84.52-252.64-245.36ZM2472.7,632.51c0-62.71-43.62-104.54-97.23-104.54s-98.15,41.83-98.15,104.54,43.62,104.5,98.15,104.5,97.23-41.83,97.23-104.5Z"/>
    <path class="cls-1" d="M2896.92,396.21h115.41v123.59h-115.41v348.96h-157.22v-348.96h-64.52v-123.59h64.52v-14.54c0-157.22,110.88-179.03,179.03-179.03,21.81,0,61.8-.9,93.6,18.19v120.87c-27.27-10.92-49.08-7.3-49.98-7.3-47.26,0-64.53,27.29-65.43,61.81Z"/>
    <path class="cls-1" d="M3591.11,396.21l-268.99,645.21h-153.58l77.25-177.2-195.38-468h159.94l110.86,288.98,109.96-288.98h159.94Z"/>
  </g>
  <g>
    <path class="cls-2" d="M494.61,442.87v138.51c0,14.24,11.54,25.78,25.78,25.78h101.67s-18.87,19.78-35.1,36.53c-9.02,9.31-8.98,24.1.09,33.36,27.1,27.66,80.84,81.26,109.25,109.35,9.88,9.77,25.97,9.09,34.99-1.48,37.34-43.75,89.78-105.76,102.43-124.32,43.7-61.99,49.72-160.98,45.12-212.07-1.29-14.38-13.24-25.44-27.67-25.5-73.52-.34-270.54-1.21-335.56-1.18-11.61,0-21.01,9.42-21.01,21.03Z"/>
    <path class="cls-1" d="M362.99,579.34c-9.39-12.46-19.02-29.06-25.6-43.85-81.54-183.34,158.89-386.21,313.32-222.9,8.13,8.59,22.64,10.02,32.26,3.14,31.64-22.68,92.22-69.74,121.07-92.96,11.37-9.15,9.9-22.68.62-33.94-61.45-74.52-154.81-142.61-291.28-139.19-268.87.82-446.05,235.33-403.83,462.59,23.76,163.11,256.56,397.37,378.01,509.95,15.65,14.51,39.18,13.57,55.51-2.53,18.21-17.97,55.26-65.79,82.54-96.94,15.77-18.01,15.53-45.57-1.57-62.32-254.85-249.65-241.07-254.53-261.05-281.03Z"/>
  </g>
</svg>